# xmcd
#
# Track frame offsets:
#	150
#	18600
#	43500
#	70200
#	89275
#	117525
#
# Disc length: 1839 seconds
#
# Revision: 1
# Processed by: cddbd v1.5.1PL0 Copyright (c) Steve Scherf et al.
# Submitted via: audiograbber 1.83.01
#
DISCID=4d072d06
DTITLE=Epopea - People of the Night
DYEAR=1900
DGENRE=Dance
TTITLE0=People of the Night (Radio Edit)
TTITLE1=People of the Night (Club Mix)
TTITLE2=People of the Night (Got The Music)
TTITLE3=People of the Night (Unplugged Mix)
TTITLE4=People of the Night (Acrodolce Mix)
TTITLE5=People of the Night (Thunder Mix)
EXTD=
EXTT0=
EXTT1=
EXTT2=
EXTT3=
EXTT4=
EXTT5=
PLAYORDER=
